<mxfile host="65bd71144e">
    <diagram id="5ztHZ6zYQGTmvxcOUTqd" name="Page-1">
        <mxGraphModel dx="1358" dy="599" grid="1" gridSize="10" guides="1" tooltips="1" connect="1" arrows="1" fold="1" page="1" pageScale="1" pageWidth="850" pageHeight="1100" math="0" shadow="0">
            <root>
                <mxCell id="0"/>
                <mxCell id="1" parent="0"/>
                <mxCell id="38" value="" style="edgeStyle=none;html=1;" edge="1" parent="1" source="2" target="37">
                    <mxGeometry relative="1" as="geometry"/>
                </mxCell>
                <mxCell id="2" value="START" style="ellipse;whiteSpace=wrap;html=1;fillColor=#00FFFF;" parent="1" vertex="1">
                    <mxGeometry x="305" y="100" width="110" height="70" as="geometry"/>
                </mxCell>
                <mxCell id="40" value="" style="edgeStyle=none;html=1;entryX=0.5;entryY=0;entryDx=0;entryDy=0;" edge="1" parent="1" source="37" target="41">
                    <mxGeometry relative="1" as="geometry">
                        <mxPoint x="360" y="350" as="targetPoint"/>
                    </mxGeometry>
                </mxCell>
                <mxCell id="37" value="Import the module &#39;string&#39; to acess key-values of conversions" style="whiteSpace=wrap;html=1;" vertex="1" parent="1">
                    <mxGeometry x="282.5" y="210" width="155" height="60" as="geometry"/>
                </mxCell>
                <mxCell id="43" value="" style="edgeStyle=none;html=1;" edge="1" parent="1" source="41" target="42">
                    <mxGeometry relative="1" as="geometry"/>
                </mxCell>
                <mxCell id="41" value="User inputs script_line (str) and target_base (int)" style="shape=parallelogram;perimeter=parallelogramPerimeter;whiteSpace=wrap;html=1;fixedSize=1;" vertex="1" parent="1">
                    <mxGeometry x="260" y="310" width="200" height="60" as="geometry"/>
                </mxCell>
                <mxCell id="45" value="True" style="edgeStyle=none;html=1;" edge="1" parent="1" source="42">
                    <mxGeometry relative="1" as="geometry">
                        <mxPoint x="360" y="600" as="targetPoint"/>
                    </mxGeometry>
                </mxCell>
                <mxCell id="48" value="False" style="edgeStyle=none;html=1;entryX=0.5;entryY=1;entryDx=0;entryDy=0;" edge="1" parent="1" source="42" target="51">
                    <mxGeometry x="-0.5" relative="1" as="geometry">
                        <mxPoint x="620" y="280" as="targetPoint"/>
                        <Array as="points">
                            <mxPoint x="620" y="460"/>
                        </Array>
                        <mxPoint as="offset"/>
                    </mxGeometry>
                </mxCell>
                <mxCell id="42" value="if not (script_line or target_base)" style="rhombus;whiteSpace=wrap;html=1;" vertex="1" parent="1">
                    <mxGeometry x="290" y="410" width="140" height="100" as="geometry"/>
                </mxCell>
                <mxCell id="46" value="END" style="ellipse;whiteSpace=wrap;html=1;fillColor=#00FFFF;" vertex="1" parent="1">
                    <mxGeometry x="480" y="1380" width="120" height="80" as="geometry"/>
                </mxCell>
                <mxCell id="50" value="" style="edgeStyle=none;html=1;entryX=0;entryY=0.5;entryDx=0;entryDy=0;exitX=1;exitY=0.5;exitDx=0;exitDy=0;" edge="1" parent="1" source="51" target="47">
                    <mxGeometry relative="1" as="geometry">
                        <mxPoint x="690" y="224.49747637704542" as="sourcePoint"/>
                        <mxPoint x="773.56" y="225.46999999999997" as="targetPoint"/>
                    </mxGeometry>
                </mxCell>
                <mxCell id="47" value="ASCII_LIST (list of str) = [ord(char) for char in script_line]" style="whiteSpace=wrap;html=1;" vertex="1" parent="1">
                    <mxGeometry x="765" y="190" width="180" height="70" as="geometry"/>
                </mxCell>
                <mxCell id="53" value="" style="edgeStyle=none;html=1;" edge="1" parent="1" target="52">
                    <mxGeometry relative="1" as="geometry">
                        <mxPoint x="855" y="260" as="sourcePoint"/>
                    </mxGeometry>
                </mxCell>
                <mxCell id="51" value="result (empty str) = &quot;&quot;" style="whiteSpace=wrap;html=1;" vertex="1" parent="1">
                    <mxGeometry x="550" y="195" width="140" height="60" as="geometry"/>
                </mxCell>
                <mxCell id="59" value="True" style="edgeStyle=none;html=1;" edge="1" parent="1" source="52" target="58">
                    <mxGeometry x="-0.3507" relative="1" as="geometry">
                        <Array as="points">
                            <mxPoint x="680" y="460"/>
                        </Array>
                        <mxPoint as="offset"/>
                    </mxGeometry>
                </mxCell>
                <mxCell id="61" value="False" style="edgeStyle=none;html=1;" edge="1" parent="1" source="52" target="60">
                    <mxGeometry relative="1" as="geometry"/>
                </mxCell>
                <mxCell id="52" value="2 &amp;lt;= target_base &amp;lt;= 9" style="rhombus;whiteSpace=wrap;html=1;" vertex="1" parent="1">
                    <mxGeometry x="770" y="410" width="170" height="100" as="geometry"/>
                </mxCell>
                <mxCell id="78" value="" style="edgeStyle=none;html=1;entryX=0;entryY=0.5;entryDx=0;entryDy=0;" edge="1" parent="1" source="54" target="46">
                    <mxGeometry relative="1" as="geometry">
                        <mxPoint x="400" y="1320" as="targetPoint"/>
                        <Array as="points">
                            <mxPoint x="250" y="640"/>
                            <mxPoint x="250" y="780"/>
                            <mxPoint x="250" y="920"/>
                            <mxPoint x="250" y="1420"/>
                        </Array>
                    </mxGeometry>
                </mxCell>
                <mxCell id="54" value="Return None type" style="shape=parallelogram;perimeter=parallelogramPerimeter;whiteSpace=wrap;html=1;fixedSize=1;" vertex="1" parent="1">
                    <mxGeometry x="300" y="600" width="120" height="80" as="geometry"/>
                </mxCell>
                <mxCell id="68" value="" style="edgeStyle=none;html=1;" edge="1" parent="1" source="58" target="67">
                    <mxGeometry relative="1" as="geometry"/>
                </mxCell>
                <mxCell id="58" value="loop through each code in the ASCII_LIST" style="whiteSpace=wrap;html=1;" vertex="1" parent="1">
                    <mxGeometry x="550" y="540" width="120" height="60" as="geometry"/>
                </mxCell>
                <mxCell id="63" value="False" style="edgeStyle=none;html=1;" edge="1" parent="1" source="60" target="62">
                    <mxGeometry x="-0.7391" relative="1" as="geometry">
                        <Array as="points">
                            <mxPoint x="1330" y="620"/>
                        </Array>
                        <mxPoint as="offset"/>
                    </mxGeometry>
                </mxCell>
                <mxCell id="66" value="True" style="edgeStyle=none;html=1;" edge="1" parent="1" source="60" target="64">
                    <mxGeometry x="-0.3333" relative="1" as="geometry">
                        <mxPoint as="offset"/>
                    </mxGeometry>
                </mxCell>
                <mxCell id="60" value="10 &amp;lt;= target_base &amp;lt;= 36" style="rhombus;whiteSpace=wrap;html=1;" vertex="1" parent="1">
                    <mxGeometry x="770" y="570" width="170" height="100" as="geometry"/>
                </mxCell>
                <mxCell id="80" value="" style="edgeStyle=none;html=1;exitX=0.5;exitY=1;exitDx=0;exitDy=0;entryX=1.017;entryY=0.6;entryDx=0;entryDy=0;entryPerimeter=0;" edge="1" parent="1" source="62" target="46">
                    <mxGeometry relative="1" as="geometry">
                        <mxPoint x="1330" y="1380" as="targetPoint"/>
                        <Array as="points">
                            <mxPoint x="1330" y="1190"/>
                            <mxPoint x="1330" y="1428"/>
                        </Array>
                    </mxGeometry>
                </mxCell>
                <mxCell id="62" value="Return None type" style="shape=parallelogram;perimeter=parallelogramPerimeter;whiteSpace=wrap;html=1;fixedSize=1;" vertex="1" parent="1">
                    <mxGeometry x="1270" y="970" width="120" height="80" as="geometry"/>
                </mxCell>
                <mxCell id="72" value="" style="edgeStyle=none;html=1;" edge="1" parent="1" source="64" target="69">
                    <mxGeometry relative="1" as="geometry"/>
                </mxCell>
                <mxCell id="64" value="loop through each code in the ASCII_LIST" style="whiteSpace=wrap;html=1;" vertex="1" parent="1">
                    <mxGeometry x="795" y="760" width="120" height="60" as="geometry"/>
                </mxCell>
                <mxCell id="74" value="" style="edgeStyle=none;html=1;" edge="1" parent="1" source="67" target="73">
                    <mxGeometry relative="1" as="geometry">
                        <Array as="points">
                            <mxPoint x="610" y="730"/>
                        </Array>
                    </mxGeometry>
                </mxCell>
                <mxCell id="67" value="conversion (empty str) = &quot;&quot;" style="whiteSpace=wrap;html=1;" vertex="1" parent="1">
                    <mxGeometry x="530" y="640" width="160" height="50" as="geometry"/>
                </mxCell>
                <mxCell id="76" value="" style="edgeStyle=none;html=1;entryX=0;entryY=0;entryDx=0;entryDy=0;" edge="1" parent="1" source="69" target="75">
                    <mxGeometry relative="1" as="geometry">
                        <Array as="points">
                            <mxPoint x="855" y="950"/>
                        </Array>
                    </mxGeometry>
                </mxCell>
                <mxCell id="69" value="conversion (empty str) = &quot;&quot;" style="whiteSpace=wrap;html=1;" vertex="1" parent="1">
                    <mxGeometry x="775" y="870" width="160" height="50" as="geometry"/>
                </mxCell>
                <mxCell id="82" value="True" style="edgeStyle=none;html=1;exitX=0;exitY=0.5;exitDx=0;exitDy=0;" edge="1" parent="1" source="73" target="81">
                    <mxGeometry x="-0.4186" relative="1" as="geometry">
                        <mxPoint x="470" y="890" as="sourcePoint"/>
                        <Array as="points">
                            <mxPoint x="368" y="780"/>
                        </Array>
                        <mxPoint as="offset"/>
                    </mxGeometry>
                </mxCell>
                <mxCell id="93" value="False" style="edgeStyle=none;html=1;" edge="1" parent="1" source="73" target="92">
                    <mxGeometry relative="1" as="geometry">
                        <Array as="points">
                            <mxPoint x="550" y="820"/>
                        </Array>
                    </mxGeometry>
                </mxCell>
                <mxCell id="73" value="code != 0" style="rhombus;whiteSpace=wrap;html=1;" vertex="1" parent="1">
                    <mxGeometry x="470" y="740" width="80" height="80" as="geometry"/>
                </mxCell>
                <mxCell id="106" value="True" style="edgeStyle=none;html=1;" edge="1" parent="1" source="75" target="105">
                    <mxGeometry x="-0.2727" relative="1" as="geometry">
                        <Array as="points">
                            <mxPoint x="804" y="1010"/>
                        </Array>
                        <mxPoint as="offset"/>
                    </mxGeometry>
                </mxCell>
                <mxCell id="116" value="" style="edgeStyle=none;html=1;entryX=0;entryY=0.5;entryDx=0;entryDy=0;" edge="1" parent="1" source="75" target="123">
                    <mxGeometry relative="1" as="geometry">
                        <mxPoint x="1040" y="1010" as="targetPoint"/>
                    </mxGeometry>
                </mxCell>
                <mxCell id="117" value="False" style="edgeLabel;html=1;align=center;verticalAlign=middle;resizable=0;points=[];" vertex="1" connectable="0" parent="116">
                    <mxGeometry x="-0.3" relative="1" as="geometry">
                        <mxPoint as="offset"/>
                    </mxGeometry>
                </mxCell>
                <mxCell id="75" value="code != 0" style="rhombus;whiteSpace=wrap;html=1;" vertex="1" parent="1">
                    <mxGeometry x="900" y="970" width="80" height="80" as="geometry"/>
                </mxCell>
                <mxCell id="86" value="" style="edgeStyle=none;html=1;" edge="1" parent="1" source="81" target="85">
                    <mxGeometry relative="1" as="geometry"/>
                </mxCell>
                <mxCell id="81" value="Obtain the remainder when dividing by the target_base" style="whiteSpace=wrap;html=1;" vertex="1" parent="1">
                    <mxGeometry x="297.5" y="830" width="140" height="50" as="geometry"/>
                </mxCell>
                <mxCell id="89" value="" style="edgeStyle=none;html=1;" edge="1" parent="1" source="85" target="87">
                    <mxGeometry relative="1" as="geometry"/>
                </mxCell>
                <mxCell id="85" value="Concatenate the conversion var with the corresponding base conversion (digits only)" style="whiteSpace=wrap;html=1;" vertex="1" parent="1">
                    <mxGeometry x="286.25" y="910" width="162.5" height="50" as="geometry"/>
                </mxCell>
                <mxCell id="91" value="" style="edgeStyle=none;html=1;" edge="1" parent="1" source="87">
                    <mxGeometry relative="1" as="geometry">
                        <mxPoint x="600" y="720" as="targetPoint"/>
                        <Array as="points">
                            <mxPoint x="370" y="1070"/>
                            <mxPoint x="270" y="1070"/>
                            <mxPoint x="270" y="720"/>
                        </Array>
                    </mxGeometry>
                </mxCell>
                <mxCell id="87" value="Divide the code by the target_base (resulting in an int type result)" style="whiteSpace=wrap;html=1;" vertex="1" parent="1">
                    <mxGeometry x="297.5" y="990" width="140" height="50" as="geometry"/>
                </mxCell>
                <mxCell id="95" value="" style="edgeStyle=none;html=1;" edge="1" parent="1" source="92" target="94">
                    <mxGeometry relative="1" as="geometry"/>
                </mxCell>
                <mxCell id="92" value="reverse the conversion variable" style="whiteSpace=wrap;html=1;" vertex="1" parent="1">
                    <mxGeometry x="490" y="870" width="120" height="40" as="geometry"/>
                </mxCell>
                <mxCell id="97" value="" style="edgeStyle=none;html=1;" edge="1" parent="1" source="94">
                    <mxGeometry relative="1" as="geometry">
                        <mxPoint x="620" y="620" as="targetPoint"/>
                        <Array as="points">
                            <mxPoint x="550" y="1050"/>
                            <mxPoint x="650" y="1050"/>
                            <mxPoint x="650" y="750"/>
                            <mxPoint x="710" y="690"/>
                            <mxPoint x="730" y="620"/>
                        </Array>
                    </mxGeometry>
                </mxCell>
                <mxCell id="94" value="Concatenate the result var with the&amp;nbsp;&lt;span style=&quot;color: rgb(0, 0, 0);&quot;&gt;reversed conversion&lt;/span&gt;&amp;nbsp;with a space char at the end" style="whiteSpace=wrap;html=1;" vertex="1" parent="1">
                    <mxGeometry x="480" y="960" width="140" height="60" as="geometry"/>
                </mxCell>
                <mxCell id="99" value="" style="edgeStyle=none;orthogonalLoop=1;jettySize=auto;html=1;entryX=0.5;entryY=0;entryDx=0;entryDy=0;" edge="1" parent="1" target="100">
                    <mxGeometry width="100" relative="1" as="geometry">
                        <mxPoint x="600" y="1050" as="sourcePoint"/>
                        <mxPoint x="600" y="1080" as="targetPoint"/>
                        <Array as="points"/>
                    </mxGeometry>
                </mxCell>
                <mxCell id="103" value="" style="edgeStyle=none;html=1;" edge="1" parent="1" source="100" target="102">
                    <mxGeometry relative="1" as="geometry"/>
                </mxCell>
                <mxCell id="100" value="After looping through each code" style="whiteSpace=wrap;html=1;" vertex="1" parent="1">
                    <mxGeometry x="520" y="1080" width="160" height="40" as="geometry"/>
                </mxCell>
                <mxCell id="104" value="" style="edgeStyle=none;html=1;" edge="1" parent="1" source="102" target="46">
                    <mxGeometry relative="1" as="geometry">
                        <Array as="points">
                            <mxPoint x="600" y="1300"/>
                        </Array>
                    </mxGeometry>
                </mxCell>
                <mxCell id="102" value="Return result" style="shape=parallelogram;perimeter=parallelogramPerimeter;whiteSpace=wrap;html=1;fixedSize=1;" vertex="1" parent="1">
                    <mxGeometry x="540" y="1160" width="120" height="60" as="geometry"/>
                </mxCell>
                <mxCell id="108" value="" style="edgeStyle=none;html=1;entryX=0.5;entryY=0;entryDx=0;entryDy=0;exitX=0.5;exitY=1;exitDx=0;exitDy=0;" edge="1" parent="1" source="105" target="107">
                    <mxGeometry relative="1" as="geometry">
                        <Array as="points"/>
                    </mxGeometry>
                </mxCell>
                <mxCell id="105" value="Obtain the remainder when dividing by the target_base" style="whiteSpace=wrap;html=1;" vertex="1" parent="1">
                    <mxGeometry x="743.75" y="1040" width="120" height="50" as="geometry"/>
                </mxCell>
                <mxCell id="110" value="True" style="edgeStyle=none;html=1;" edge="1" parent="1" source="107" target="109">
                    <mxGeometry x="-0.2308" relative="1" as="geometry">
                        <mxPoint as="offset"/>
                    </mxGeometry>
                </mxCell>
                <mxCell id="119" value="False" style="edgeStyle=none;html=1;entryX=0;entryY=0.25;entryDx=0;entryDy=0;" edge="1" parent="1" source="107" target="120">
                    <mxGeometry x="-0.4877" relative="1" as="geometry">
                        <mxPoint x="948.75" y="1150" as="targetPoint"/>
                        <Array as="points">
                            <mxPoint x="920" y="1150"/>
                        </Array>
                        <mxPoint as="offset"/>
                    </mxGeometry>
                </mxCell>
                <mxCell id="107" value="remainder &amp;lt;= 9" style="rhombus;whiteSpace=wrap;html=1;" vertex="1" parent="1">
                    <mxGeometry x="751.25" y="1115" width="105" height="70" as="geometry"/>
                </mxCell>
                <mxCell id="112" value="" style="edgeStyle=none;html=1;" edge="1" parent="1" source="109" target="111">
                    <mxGeometry relative="1" as="geometry"/>
                </mxCell>
                <mxCell id="109" value="concatenate the conversion var with the corresponding base conversion (digits only)" style="whiteSpace=wrap;html=1;" vertex="1" parent="1">
                    <mxGeometry x="720" y="1230" width="167.5" height="50" as="geometry"/>
                </mxCell>
                <mxCell id="114" value="" style="edgeStyle=none;html=1;" edge="1" parent="1" source="111">
                    <mxGeometry relative="1" as="geometry">
                        <mxPoint x="850" y="950" as="targetPoint"/>
                        <Array as="points">
                            <mxPoint x="804" y="1410"/>
                            <mxPoint x="700" y="1410"/>
                            <mxPoint x="700" y="950"/>
                        </Array>
                    </mxGeometry>
                </mxCell>
                <mxCell id="111" value="Divide the code by the target_base (resulting in an int type result)" style="whiteSpace=wrap;html=1;" vertex="1" parent="1">
                    <mxGeometry x="733.75" y="1330" width="140" height="50" as="geometry"/>
                </mxCell>
                <mxCell id="127" value="" style="edgeStyle=none;html=1;entryX=1;entryY=0.5;entryDx=0;entryDy=0;exitX=0.25;exitY=1;exitDx=0;exitDy=0;" edge="1" parent="1" source="120" target="111">
                    <mxGeometry relative="1" as="geometry">
                        <mxPoint x="1068.4615384615386" y="1290" as="targetPoint"/>
                        <Array as="points">
                            <mxPoint x="970" y="1355"/>
                        </Array>
                    </mxGeometry>
                </mxCell>
                <mxCell id="120" value="concatenate the conversion var with the corresponding base conversion (capital letters only)" style="whiteSpace=wrap;html=1;" vertex="1" parent="1">
                    <mxGeometry x="975" y="1165" width="185" height="50" as="geometry"/>
                </mxCell>
                <mxCell id="125" value="" style="edgeStyle=none;html=1;" edge="1" parent="1" source="123" target="124">
                    <mxGeometry relative="1" as="geometry"/>
                </mxCell>
                <mxCell id="123" value="reverse the conversion variable" style="whiteSpace=wrap;html=1;" vertex="1" parent="1">
                    <mxGeometry x="1040" y="990" width="120" height="40" as="geometry"/>
                </mxCell>
                <mxCell id="128" value="" style="edgeStyle=none;html=1;" edge="1" parent="1" source="124">
                    <mxGeometry relative="1" as="geometry">
                        <mxPoint x="870" y="840" as="targetPoint"/>
                        <Array as="points">
                            <mxPoint x="1220" y="1080"/>
                            <mxPoint x="1220" y="840"/>
                        </Array>
                    </mxGeometry>
                </mxCell>
                <mxCell id="124" value="Concatenate the result var with the&amp;nbsp;&lt;span style=&quot;color: rgb(0, 0, 0);&quot;&gt;reversed conversion&lt;/span&gt;&amp;nbsp;with a space char at the end" style="whiteSpace=wrap;html=1;" vertex="1" parent="1">
                    <mxGeometry x="1030" y="1050" width="140" height="60" as="geometry"/>
                </mxCell>
                <mxCell id="133" value="" style="edgeStyle=none;html=1;" edge="1" parent="1" source="129" target="131">
                    <mxGeometry relative="1" as="geometry"/>
                </mxCell>
                <mxCell id="129" value="After looping through each code" style="whiteSpace=wrap;html=1;" vertex="1" parent="1">
                    <mxGeometry x="1120" y="1250" width="160" height="40" as="geometry"/>
                </mxCell>
                <mxCell id="130" value="" style="edgeStyle=none;orthogonalLoop=1;jettySize=auto;html=1;entryX=0.5;entryY=0;entryDx=0;entryDy=0;" edge="1" parent="1" target="129">
                    <mxGeometry width="100" relative="1" as="geometry">
                        <mxPoint x="1200" y="1080" as="sourcePoint"/>
                        <mxPoint x="1300" y="1170" as="targetPoint"/>
                        <Array as="points"/>
                    </mxGeometry>
                </mxCell>
                <mxCell id="135" value="" style="edgeStyle=none;html=1;" edge="1" parent="1" source="131">
                    <mxGeometry relative="1" as="geometry">
                        <mxPoint x="1200" y="1420" as="targetPoint"/>
                    </mxGeometry>
                </mxCell>
                <mxCell id="131" value="Return result" style="shape=parallelogram;perimeter=parallelogramPerimeter;whiteSpace=wrap;html=1;fixedSize=1;" vertex="1" parent="1">
                    <mxGeometry x="1140" y="1325" width="120" height="60" as="geometry"/>
                </mxCell>
            </root>
        </mxGraphModel>
    </diagram>
</mxfile>